<svg xmlns:dc="http://purl.org/dc/elements/1.1/" xmlns:cc="http://creativecommons.org/ns#" xmlns:rdf="http://www.w3.org/1999/02/22-rdf-syntax-ns#" xmlns:svg="http://www.w3.org/2000/svg" xmlns="http://www.w3.org/2000/svg" xmlns:sodipodi="http://sodipodi.sourceforge.net/DTD/sodipodi-0.dtd" xmlns:inkscape="http://www.inkscape.org/namespaces/inkscape" width="64" height="64" viewBox="0 0 16.933333 16.933334" version="1.1" id="svg8" inkscape:version="0.92.3 (2405546, 2018-03-11)" sodipodi:docname="06-Meeting.svg" inkscape:export-filename="/home/wanzabuyumna/@WANZ_DESIGN/NICON STUDIO MAGANG/Style Line/Style Line/Icon 6/Icon 6.png" inkscape:export-xdpi="96" inkscape:export-ydpi="96">
<defs id="defs2"></defs>
<sodipodi:namedview id="base" pagecolor="#ffffff" bordercolor="#959595" borderopacity="1" inkscape:pageopacity="0" inkscape:pageshadow="2" inkscape:zoom="5.6" inkscape:cx="14.121603" inkscape:cy="9.933146" inkscape:document-units="px" inkscape:current-layer="layer1" inkscape:document-rotation="0" showgrid="false" units="px" inkscape:window-width="1920" inkscape:window-height="1040" inkscape:window-x="0" inkscape:window-y="0" inkscape:window-maximized="1" inkscape:pagecheckerboard="0" inkscape:snap-bbox="true" inkscape:bbox-nodes="true" inkscape:snap-page="true"></sodipodi:namedview>
<metadata id="metadata5">
<rdf:rdf>
<cc:work rdf:about="">
<dc:format>image/svg+xml</dc:format>
<dc:type rdf:resource="http://purl.org/dc/dcmitype/StillImage"></dc:type>
</cc:work>
</rdf:rdf>
</metadata>
<g inkscape:label="06-Meeting" inkscape:groupmode="layer" id="layer1">
<path style="color: rgb(0, 0, 0); opacity: 1; fill: rgb(255, 255, 255); stroke: none; stroke-width: 1; stroke-linecap: round; stroke-linejoin: round;" d="M 8.4677261,0 C 7.6771474,0.01095019 7.0853603,0.6655859 7.1514958,1.4448585 6.6728647,1.6731256 6.1712291,1.9832438 5.8016749,2.4127483 5.7256403,2.5011173 5.6560198,2.595441 5.5939307,2.6954156 2.3965278,4.0403561 0.5629192,7.4262549 1.1744559,10.832305 c -0.63836694,0.382034 -0.91923802,0.961228 -0.96688925,1.595751 -0.042352,0.563975 0.0940388,1.135933 0.27079103,1.635027 -0.0316318,0.02618 -0.0624046,0.05414 -0.0919863,0.08372 -0.51443906,0.514375 -0.51553862,1.356811 -0.001035,1.871185 0.51443909,0.514374 1.35681042,0.512925 1.87124862,-0.0016 0.02906,-0.02906 0.056397,-0.0589 0.082168,-0.08992 0.4997671,0.176914 1.0738135,0.311645 1.638699,0.269232 0.2844292,-0.02136 0.5730764,-0.09091 0.8340778,-0.227891 2.2648922,1.286821 5.0382291,1.288088 7.3118742,-5.29e-4 0.266675,0.151527 0.53959,0.214618 0.964822,0.236159 0.434183,0.022 1.006638,-0.10007 1.506404,-0.276983 0.02578,0.03102 0.05311,0.06087 0.08217,0.08992 0.514439,0.514374 1.356811,0.515825 1.87125,0.0016 0.514436,-0.514374 0.513335,-1.35681 -0.001,-1.871185 -0.02959,-0.02959 -0.06036,-0.05754 -0.09199,-0.08372 0.17675,-0.499131 0.313142,-1.071051 0.270792,-1.635026 -0.0479,-0.636839 -0.328854,-1.214258 -0.967924,-1.596256 C 16.36755,7.4345083 14.581106,4.0802832 11.345655,2.7005831 11.273425,2.587529 11.214178,2.5069607 11.132227,2.4117148 10.763233,1.982862 10.234864,1.6603391 9.7860236,1.445892 9.8389649,0.59981427 9.1952546,1.9999798e-7 8.4677261,0 Z M 7.308596,1.9569667 c 0.225401,0.4092026 0.661085,0.6883229 1.1591301,0.6883232 0.4976183,-3e-7 0.9330452,-0.2786619 1.1586135,-0.6872896 0.4146204,0.2059615 0.8264014,0.4752682 1.1048684,0.7989097 0.321677,0.3738609 0.479943,0.7910051 0.326603,1.3632105 l -0.37673,1.4055848 C 10.62299,5.7424826 10.412122,5.8643922 10.19531,5.8063053 9.9785053,5.748219 9.8566077,5.5373321 9.914701,5.3205519 L 10.2227,4.1702462 C 10.24081,4.1025642 10.2313,4.0304481 10.19634,3.9697435 L 10.009271,3.6452189 C 9.9361299,3.5185718 9.7740946,3.475284 9.6475276,3.5485848 9.5211744,3.6217082 9.4779335,3.7833628 9.5508902,3.9097995 L 9.6831851,4.1392405 9.403609,5.1836107 c -0.1316014,0.4910856 0.1636077,1.0021832 0.654756,1.1337695 0.491149,0.1315863 1.002209,-0.1636451 1.133808,-0.6547337 l 0.376731,-1.4055848 c 0.08064,-0.3009362 0.08843,-0.5856658 0.04341,-0.8495521 2.61735,1.34353 4.098405,4.2149843 3.656712,7.1405774 l -0.799972,-0.461466 c -0.440349,-0.2542097 -1.010315,-0.1013047 -1.264552,0.338995 -0.254237,0.440295 -0.101344,1.010305 0.339005,1.264509 l 0.935883,0.541046 0.06873,0.25528 c 0.03782,0.140986 0.182962,0.225212 0.324019,0.187583 0.141335,-0.03766 0.224915,-0.183257 0.187073,-0.324525 l -0.09715,-0.361731 c -0.01819,-0.06766 -0.06232,-0.125138 -0.122992,-0.160195 L 13.808097,11.23176 c -0.194384,-0.112213 -0.257441,-0.347204 -0.145214,-0.541564 0.112229,-0.194361 0.347202,-0.257422 0.541582,-0.14521 l 1.260419,0.727597 c 0.513089,0.296195 0.698146,0.72656 0.733305,1.194747 0.03196,0.425537 -0.06911,0.907019 -0.216529,1.345641 -0.448415,-0.129341 -0.953061,-0.01794 -1.304862,0.333826 -0.352182,0.352141 -0.462831,0.857126 -0.332803,1.305851 -0.439267,0.147799 -0.921702,0.249542 -1.347754,0.217556 -0.463493,-0.03479 -0.898557,-0.220773 -1.194788,-0.733799 l -0.727621,-1.260892 c -0.112231,-0.194356 -0.04968,-0.430382 0.144697,-0.542597 0.194384,-0.112213 0.429356,-0.04812 0.541582,0.146243 l 0.595327,1.031968 c 0.03538,0.06083 0.09317,0.105132 0.161234,0.122989 l 0.36226,0.09663 c 0.141094,0.03721 0.285479,-0.0471 0.322986,-0.1881 0.03721,-0.141074 -0.0471,-0.285474 -0.188107,-0.322975 l -0.253737,-0.06925 -0.541582,-0.936367 c -0.254238,-0.440296 -0.823168,-0.592683 -1.26352,-0.338478 -0.44035,0.254206 -0.594282,0.825249 -0.340038,1.265543 l 0.728138,1.260892 c 0.09237,0.159982 0.198579,0.297843 0.315234,0.415992 -2.0004276,1.047587 -4.3861535,1.04611 -6.3832266,-5.3e-4 0.1165524,-0.118089 0.2229246,-0.255609 0.3152338,-0.415474 L 6.3184516,13.941107 C 6.576126,13.494892 6.4187641,12.929782 5.9784126,12.675576 5.5380602,12.421372 4.9691309,12.573757 4.7148934,13.014054 L 4.1733116,13.950421 3.919574,14.01967 c -0.1410139,0.0375 -0.2253184,0.1819 -0.1881066,0.322975 0.037505,0.140998 0.1818929,0.225308 0.3229854,0.1881 l 0.3622603,-0.09663 c 0.068066,-0.01786 0.1258579,-0.06216 0.1612344,-0.122989 l 0.5953269,-1.031968 c 0.112228,-0.194361 0.3568838,-0.252865 0.5415819,-0.146243 0.1943878,0.112214 0.2532471,0.354611 0.1446976,0.542597 L 5.1319322,14.936405 C 4.8487607,15.426811 4.4290045,15.633283 3.9371443,15.670204 3.511093,15.702212 3.0286571,15.600446 2.5893907,15.452648 2.7194163,15.003923 2.60877,14.498938 2.2565865,14.146797 1.9047859,13.795033 1.4001412,13.68363 0.95172516,13.812971 0.80430822,13.374349 0.70323924,12.892868 0.73519573,12.46733 0.76948735,12.010729 0.95541296,11.568778 1.4685019,11.272583 l 1.2604185,-0.727597 c 0.19438,-0.112212 0.4293531,-0.04916 0.541582,0.14521 0.1122281,0.194361 0.04917,0.429351 -0.1452142,0.541564 l -1.0309696,0.595823 c -0.060674,0.03506 -0.104803,0.09253 -0.1229929,0.160195 l -0.097154,0.361731 c -0.037842,0.141268 0.045737,0.286871 0.1870731,0.324525 0.1410566,0.03763 0.2861933,-0.0466 0.3240191,-0.187583 l 0.068731,-0.25528 0.9358828,-0.541046 C 3.8302284,11.435922 3.9831208,10.865911 3.7288834,10.425616 3.4746457,9.9853173 2.9046807,9.8324113 2.4643308,10.086621 L 1.6633268,10.54912 C 1.220494,7.622424 2.6985087,4.7516045 5.3153881,3.4080263 5.270151,3.6716674 5.283808,3.9555075 5.364482,4.2565449 L 5.7412121,5.6626465 C 5.8728103,6.1537354 6.3849049,6.4484495 6.8760537,6.3168634 7.3672029,6.1852769 7.6618947,5.675213 7.5302933,5.1841274 L 7.2512338,4.1392405 7.3819783,3.910833 C 7.4551697,3.7846164 7.4124559,3.6230637 7.2863744,3.5496185 7.1601408,3.476436 6.9980846,3.5191539 6.9246308,3.6452189 L 6.7375577,3.9692267 c -0.0355,0.06075 -0.045388,0.1329997 -0.027389,0.2010195 L 7.0186841,5.3210686 C 7.076777,5.5378486 6.9559146,5.7492529 6.739108,5.807339 6.5222981,5.8654256 6.3109124,5.7424818 6.2528209,5.5257053 L 5.8760907,4.1196036 C 5.7227493,3.5473987 5.9046804,3.1021385 6.2021769,2.7563932 6.4807263,2.4326568 6.8936045,2.1629996 7.308596,1.9569667 Z M 6.0859021,6.8780639 c -0.4351809,0 -0.7948025,0.3601665 -0.7948025,0.7952922 v 3.1729009 c -0.00164,0.237566 0.2864818,0.356842 0.4532133,0.187584 l 0.9761912,-0.980293 h 0.1581336 v 0.263548 c 0,0.435127 0.3601383,0.795292 0.7953194,0.795292 h 2.5389249 l 0.976708,0.980292 c 0.16673,0.169258 0.454846,0.04999 0.453213,-0.187583 V 8.7296118 c 0,-0.4351264 -0.360138,-0.7927085 -0.79532,-0.7927085 H 10.054748 V 7.6733561 c 0,-0.4351257 -0.359622,-0.7952922 -0.794803,-0.7952922 z m 0,0.5296781 H 9.259945 c 0.151163,0 0.2656232,0.1144708 0.2656232,0.2656141 v 1.5859338 c 0,0.1511444 -0.1144602,0.2650974 -0.2656232,0.2650974 H 6.611464 c -0.070408,6.01e-5 -0.1379694,0.028081 -0.1875898,0.07803 L 5.8202789,10.20806 V 7.6733561 c 0,-0.1511431 0.1144607,-0.2656141 0.2656232,-0.2656141 z m 0.5286627,0.7932253 c -0.1461322,0 -0.2645897,0.1184668 -0.2645897,0.2645806 0,0.1461139 0.1184575,0.2645807 0.2645897,0.2645807 0.1461323,0 0.2645897,-0.1184668 0.2645897,-0.2645807 0,-0.1461138 -0.1184574,-0.2645806 -0.2645897,-0.2645806 z m 1.0583588,0 c -0.1461324,0 -0.2645897,0.1184668 -0.2645897,0.2645806 0,0.1461139 0.1184573,0.2645807 0.2645897,0.2645807 0.146132,0 0.2645897,-0.1184668 0.2645897,-0.2645807 0,-0.1461138 -0.1184577,-0.2645806 -0.2645897,-0.2645806 z m 1.0583588,0 c -0.1461322,0 -0.2645898,0.1184668 -0.2645898,0.2645806 0,0.1461139 0.1184576,0.2645807 0.2645898,0.2645807 0.1461323,0 0.2645897,-0.1184668 0.2645897,-0.2645807 0,-0.1461138 -0.1184574,-0.2645806 -0.2645897,-0.2645806 z" id="path836" inkscape:connector-curvature="0" sodipodi:nodetypes="cccccccccccccccccccccccccccccccccccccccccccccccccccccccccccccccccccccccccccccccccccccccccccccccccccccccccccccccccccccccccccccccccccccccccccccccccccccccccccccccccccccccccccc"></path>
</g>
</svg>